<?xml version="1.0" encoding="UTF-8" standalone="no"?>
<!DOCTYPE svg PUBLIC "-//W3C//DTD SVG 1.1//EN"
 "http://www.w3.org/Graphics/SVG/1.1/DTD/svg11.dtd">
<!-- Generated by graphviz version 2.38.0 (20140413.2041)
 -->
<!-- Title: classes_exceptions Pages: 1 -->
<svg width="2249pt" height="293pt"
 viewBox="0.00 0.00 2249.00 293.00" xmlns="http://www.w3.org/2000/svg" xmlns:xlink="http://www.w3.org/1999/xlink">
<g id="graph0" class="graph" transform="scale(1 1) rotate(0) translate(4 289)">
<title>classes_exceptions</title>
<polygon fill="white" stroke="none" points="-4,4 -4,-289 2245,-289 2245,4 -4,4"/>
<!-- 0 -->
<g id="node1" class="node"><title>0</title>
<polygon fill="none" stroke="black" points="638,-214.5 638,-284.5 846,-284.5 846,-214.5 638,-214.5"/>
<text text-anchor="middle" x="742" y="-269.3" font-family="Times,serif" font-size="14.00" fill="red">BadBlockMatcherArgumentError</text>
<polyline fill="none" stroke="black" points="638,-261.5 846,-261.5 "/>
<polyline fill="none" stroke="black" points="638,-237.5 846,-237.5 "/>
<text text-anchor="middle" x="742" y="-222.3" font-family="Times,serif" font-size="14.00" fill="red"> </text>
</g>
<!-- 1 -->
<g id="node2" class="node"><title>1</title>
<polygon fill="none" stroke="black" points="2071,-0.5 2071,-70.5 2241,-70.5 2241,-0.5 2071,-0.5"/>
<text text-anchor="middle" x="2156" y="-55.3" font-family="Times,serif" font-size="14.00" fill="red">ChessboardNotFoundError</text>
<polyline fill="none" stroke="black" points="2071,-47.5 2241,-47.5 "/>
<polyline fill="none" stroke="black" points="2071,-23.5 2241,-23.5 "/>
<text text-anchor="middle" x="2156" y="-8.3" font-family="Times,serif" font-size="14.00" fill="red"> </text>
</g>
<!-- 2 -->
<g id="node3" class="node"><title>2</title>
<polygon fill="none" stroke="black" points="0,-0.5 0,-70.5 142,-70.5 142,-0.5 0,-0.5"/>
<text text-anchor="middle" x="71" y="-55.3" font-family="Times,serif" font-size="14.00" fill="red">InvalidBMPresetError</text>
<polyline fill="none" stroke="black" points="0,-47.5 142,-47.5 "/>
<polyline fill="none" stroke="black" points="0,-23.5 142,-23.5 "/>
<text text-anchor="middle" x="71" y="-8.3" font-family="Times,serif" font-size="14.00" fill="red"> </text>
</g>
<!-- 12 -->
<g id="node13" class="node"><title>12</title>
<polygon fill="none" stroke="black" points="277,-107.5 277,-177.5 381,-177.5 381,-107.5 277,-107.5"/>
<text text-anchor="middle" x="329" y="-162.3" font-family="Times,serif" font-size="14.00" fill="red">StereoBMError</text>
<polyline fill="none" stroke="black" points="277,-154.5 381,-154.5 "/>
<polyline fill="none" stroke="black" points="277,-130.5 381,-130.5 "/>
<text text-anchor="middle" x="329" y="-115.3" font-family="Times,serif" font-size="14.00" fill="red"> </text>
</g>
<!-- 2&#45;&gt;12 -->
<g id="edge1" class="edge"><title>2&#45;&gt;12</title>
<path fill="none" stroke="black" d="M142.053,-67.273C145.073,-68.5393 148.065,-69.7861 151,-71 189.464,-86.9067 232.89,-104.121 267.219,-117.557"/>
<polygon fill="none" stroke="black" points="266.061,-120.862 276.649,-121.242 268.609,-114.342 266.061,-120.862"/>
</g>
<!-- 3 -->
<g id="node4" class="node"><title>3</title>
<polygon fill="none" stroke="black" points="515,-0.5 515,-70.5 763,-70.5 763,-0.5 515,-0.5"/>
<text text-anchor="middle" x="639" y="-55.3" font-family="Times,serif" font-size="14.00" fill="red">InvalidFirstDisparityChangePenaltyError</text>
<polyline fill="none" stroke="black" points="515,-47.5 763,-47.5 "/>
<polyline fill="none" stroke="black" points="515,-23.5 763,-23.5 "/>
<text text-anchor="middle" x="639" y="-8.3" font-family="Times,serif" font-size="14.00" fill="red"> </text>
</g>
<!-- 13 -->
<g id="node14" class="node"><title>13</title>
<polygon fill="none" stroke="black" points="1127,-107.5 1127,-177.5 1249,-177.5 1249,-107.5 1127,-107.5"/>
<text text-anchor="middle" x="1188" y="-162.3" font-family="Times,serif" font-size="14.00" fill="red">StereoSGBMError</text>
<polyline fill="none" stroke="black" points="1127,-154.5 1249,-154.5 "/>
<polyline fill="none" stroke="black" points="1127,-130.5 1249,-130.5 "/>
<text text-anchor="middle" x="1188" y="-115.3" font-family="Times,serif" font-size="14.00" fill="red"> </text>
</g>
<!-- 3&#45;&gt;13 -->
<g id="edge2" class="edge"><title>3&#45;&gt;13</title>
<path fill="none" stroke="black" d="M763.166,-69.0675C766.136,-69.7306 769.084,-70.376 772,-71 892.161,-96.7171 1033.47,-119.003 1116.62,-131.311"/>
<polygon fill="none" stroke="black" points="1116.31,-134.803 1126.71,-132.799 1117.33,-127.878 1116.31,-134.803"/>
</g>
<!-- 4 -->
<g id="node5" class="node"><title>4</title>
<polygon fill="none" stroke="black" points="781.5,-0.5 781.5,-70.5 954.5,-70.5 954.5,-0.5 781.5,-0.5"/>
<text text-anchor="middle" x="868" y="-55.3" font-family="Times,serif" font-size="14.00" fill="red">InvalidNumDisparitiesError</text>
<polyline fill="none" stroke="black" points="781.5,-47.5 954.5,-47.5 "/>
<polyline fill="none" stroke="black" points="781.5,-23.5 954.5,-23.5 "/>
<text text-anchor="middle" x="868" y="-8.3" font-family="Times,serif" font-size="14.00" fill="red"> </text>
</g>
<!-- 4&#45;&gt;13 -->
<g id="edge3" class="edge"><title>4&#45;&gt;13</title>
<path fill="none" stroke="black" d="M954.665,-68.1539C957.473,-69.1218 960.257,-70.0728 963,-71 1014.19,-88.3067 1072.42,-106.512 1116.82,-120.087"/>
<polygon fill="none" stroke="black" points="1116.06,-123.514 1126.64,-123.085 1118.1,-116.819 1116.06,-123.514"/>
</g>
<!-- 5 -->
<g id="node6" class="node"><title>5</title>
<polygon fill="none" stroke="black" points="972.5,-0.5 972.5,-70.5 1159.5,-70.5 1159.5,-0.5 972.5,-0.5"/>
<text text-anchor="middle" x="1066" y="-55.3" font-family="Times,serif" font-size="14.00" fill="red">InvalidSADWindowSizeError</text>
<polyline fill="none" stroke="black" points="972.5,-47.5 1159.5,-47.5 "/>
<polyline fill="none" stroke="black" points="972.5,-23.5 1159.5,-23.5 "/>
<text text-anchor="middle" x="1066" y="-8.3" font-family="Times,serif" font-size="14.00" fill="red"> </text>
</g>
<!-- 5&#45;&gt;13 -->
<g id="edge4" class="edge"><title>5&#45;&gt;13</title>
<path fill="none" stroke="black" d="M1105.61,-70.5905C1116.69,-80.1266 1128.85,-90.5906 1140.34,-100.483"/>
<polygon fill="none" stroke="black" points="1138.31,-103.351 1148.17,-107.221 1142.88,-98.0452 1138.31,-103.351"/>
</g>
<!-- 6 -->
<g id="node7" class="node"><title>6</title>
<polygon fill="none" stroke="black" points="160,-0.5 160,-70.5 320,-70.5 320,-0.5 160,-0.5"/>
<text text-anchor="middle" x="240" y="-55.3" font-family="Times,serif" font-size="14.00" fill="red">InvalidSearchRangeError</text>
<polyline fill="none" stroke="black" points="160,-47.5 320,-47.5 "/>
<polyline fill="none" stroke="black" points="160,-23.5 320,-23.5 "/>
<text text-anchor="middle" x="240" y="-8.3" font-family="Times,serif" font-size="14.00" fill="red"> </text>
</g>
<!-- 6&#45;&gt;12 -->
<g id="edge5" class="edge"><title>6&#45;&gt;12</title>
<path fill="none" stroke="black" d="M268.896,-70.5905C276.668,-79.7598 285.167,-89.787 293.263,-99.3388"/>
<polygon fill="none" stroke="black" points="290.809,-101.856 299.945,-107.221 296.149,-97.3298 290.809,-101.856"/>
</g>
<!-- 7 -->
<g id="node8" class="node"><title>7</title>
<polygon fill="none" stroke="black" points="1178,-0.5 1178,-70.5 1444,-70.5 1444,-0.5 1178,-0.5"/>
<text text-anchor="middle" x="1311" y="-55.3" font-family="Times,serif" font-size="14.00" fill="red">InvalidSecondDisparityChangePenaltyError</text>
<polyline fill="none" stroke="black" points="1178,-47.5 1444,-47.5 "/>
<polyline fill="none" stroke="black" points="1178,-23.5 1444,-23.5 "/>
<text text-anchor="middle" x="1311" y="-8.3" font-family="Times,serif" font-size="14.00" fill="red"> </text>
</g>
<!-- 7&#45;&gt;13 -->
<g id="edge6" class="edge"><title>7&#45;&gt;13</title>
<path fill="none" stroke="black" d="M1271.07,-70.5905C1259.89,-80.1266 1247.64,-90.5906 1236.05,-100.483"/>
<polygon fill="none" stroke="black" points="1233.49,-98.0666 1228.16,-107.221 1238.03,-103.391 1233.49,-98.0666"/>
</g>
<!-- 8 -->
<g id="node9" class="node"><title>8</title>
<polygon fill="none" stroke="black" points="1462.5,-0.5 1462.5,-70.5 1629.5,-70.5 1629.5,-0.5 1462.5,-0.5"/>
<text text-anchor="middle" x="1546" y="-55.3" font-family="Times,serif" font-size="14.00" fill="red">InvalidSpeckleRangeError</text>
<polyline fill="none" stroke="black" points="1462.5,-47.5 1629.5,-47.5 "/>
<polyline fill="none" stroke="black" points="1462.5,-23.5 1629.5,-23.5 "/>
<text text-anchor="middle" x="1546" y="-8.3" font-family="Times,serif" font-size="14.00" fill="red"> </text>
</g>
<!-- 8&#45;&gt;13 -->
<g id="edge7" class="edge"><title>8&#45;&gt;13</title>
<path fill="none" stroke="black" d="M1462.48,-67.9107C1459.29,-68.9755 1456.12,-70.0093 1453,-71 1387.97,-91.6611 1312.69,-111.286 1259.02,-124.559"/>
<polygon fill="none" stroke="black" points="1258.13,-121.173 1249.26,-126.962 1259.81,-127.97 1258.13,-121.173"/>
</g>
<!-- 9 -->
<g id="node10" class="node"><title>9</title>
<polygon fill="none" stroke="black" points="1647.5,-0.5 1647.5,-70.5 1852.5,-70.5 1852.5,-0.5 1647.5,-0.5"/>
<text text-anchor="middle" x="1750" y="-55.3" font-family="Times,serif" font-size="14.00" fill="red">InvalidSpeckleWindowSizeError</text>
<polyline fill="none" stroke="black" points="1647.5,-47.5 1852.5,-47.5 "/>
<polyline fill="none" stroke="black" points="1647.5,-23.5 1852.5,-23.5 "/>
<text text-anchor="middle" x="1750" y="-8.3" font-family="Times,serif" font-size="14.00" fill="red"> </text>
</g>
<!-- 9&#45;&gt;13 -->
<g id="edge8" class="edge"><title>9&#45;&gt;13</title>
<path fill="none" stroke="black" d="M1647.34,-68.9883C1644.53,-69.6884 1641.75,-70.3609 1639,-71 1506.32,-101.815 1348.51,-123.031 1259.11,-133.647"/>
<polygon fill="none" stroke="black" points="1258.61,-130.182 1249.09,-134.827 1259.43,-137.134 1258.61,-130.182"/>
</g>
<!-- 10 -->
<g id="node11" class="node"><title>10</title>
<polygon fill="none" stroke="black" points="1871,-0.5 1871,-70.5 2053,-70.5 2053,-0.5 1871,-0.5"/>
<text text-anchor="middle" x="1962" y="-55.3" font-family="Times,serif" font-size="14.00" fill="red">InvalidUniquenessRatioError</text>
<polyline fill="none" stroke="black" points="1871,-47.5 2053,-47.5 "/>
<polyline fill="none" stroke="black" points="1871,-23.5 2053,-23.5 "/>
<text text-anchor="middle" x="1962" y="-8.3" font-family="Times,serif" font-size="14.00" fill="red"> </text>
</g>
<!-- 10&#45;&gt;13 -->
<g id="edge9" class="edge"><title>10&#45;&gt;13</title>
<path fill="none" stroke="black" d="M1870.96,-68.866C1867.95,-69.6292 1864.96,-70.344 1862,-71 1645.82,-118.938 1383.21,-134.494 1259.28,-139.372"/>
<polygon fill="none" stroke="black" points="1259.02,-135.879 1249.16,-139.758 1259.29,-142.874 1259.02,-135.879"/>
</g>
<!-- 11 -->
<g id="node12" class="node"><title>11</title>
<polygon fill="none" stroke="black" points="338.5,-0.5 338.5,-70.5 497.5,-70.5 497.5,-0.5 338.5,-0.5"/>
<text text-anchor="middle" x="418" y="-55.3" font-family="Times,serif" font-size="14.00" fill="red">InvalidWindowSizeError</text>
<polyline fill="none" stroke="black" points="338.5,-47.5 497.5,-47.5 "/>
<polyline fill="none" stroke="black" points="338.5,-23.5 497.5,-23.5 "/>
<text text-anchor="middle" x="418" y="-8.3" font-family="Times,serif" font-size="14.00" fill="red"> </text>
</g>
<!-- 11&#45;&gt;12 -->
<g id="edge10" class="edge"><title>11&#45;&gt;12</title>
<path fill="none" stroke="black" d="M389.104,-70.5905C381.332,-79.7598 372.833,-89.787 364.737,-99.3388"/>
<polygon fill="none" stroke="black" points="361.851,-97.3298 358.055,-107.221 367.191,-101.856 361.851,-97.3298"/>
</g>
<!-- 12&#45;&gt;0 -->
<g id="edge11" class="edge"><title>12&#45;&gt;0</title>
<path fill="none" stroke="black" d="M381.307,-156.798C443.046,-172.495 547.507,-199.053 628.168,-219.56"/>
<polygon fill="none" stroke="black" points="627.329,-222.958 637.883,-222.029 629.053,-216.173 627.329,-222.958"/>
</g>
<!-- 13&#45;&gt;0 -->
<g id="edge12" class="edge"><title>13&#45;&gt;0</title>
<path fill="none" stroke="black" d="M1126.92,-157.88C1057.43,-174.239 942.43,-201.314 856.189,-221.617"/>
<polygon fill="none" stroke="black" points="855.282,-218.235 846.35,-223.933 856.886,-225.048 855.282,-218.235"/>
</g>
</g>
</svg>
