<?xml version="1.0" encoding="UTF-8" standalone="no"?>
<!DOCTYPE svg PUBLIC "-//W3C//DTD SVG 1.1//EN"
 "http://www.w3.org/Graphics/SVG/1.1/DTD/svg11.dtd">
<!-- Generated by graphviz version 2.28.0 (20130928.0220)
 -->
<!-- Title: classes_exceptions Pages: 1 -->
<svg width="2249pt" height="296pt"
 viewBox="0.00 0.00 2249.00 296.00" xmlns="http://www.w3.org/2000/svg" xmlns:xlink="http://www.w3.org/1999/xlink">
<g id="graph1" class="graph" transform="scale(1 1) rotate(0) translate(4 292)">
<title>classes_exceptions</title>
<polygon fill="white" stroke="white" points="-4,5 -4,-292 2246,-292 2246,5 -4,5"/>
<!-- 0 -->
<g id="node1" class="node"><title>0</title>
<polygon fill="none" stroke="black" points="638,-217 638,-287 846,-287 846,-217 638,-217"/>
<text text-anchor="middle" x="742" y="-271.8" font-family="Times,serif" font-size="14.00" fill="red">BadBlockMatcherArgumentError</text>
<polyline fill="none" stroke="black" points="638,-264 846,-264 "/>
<polyline fill="none" stroke="black" points="638,-240 846,-240 "/>
<text text-anchor="middle" x="742" y="-224.8" font-family="Times,serif" font-size="14.00" fill="red"> </text>
</g>
<!-- 1 -->
<g id="node2" class="node"><title>1</title>
<polygon fill="none" stroke="black" points="2071,-1 2071,-71 2241,-71 2241,-1 2071,-1"/>
<text text-anchor="middle" x="2156" y="-55.8" font-family="Times,serif" font-size="14.00" fill="red">ChessboardNotFoundError</text>
<polyline fill="none" stroke="black" points="2071,-48 2241,-48 "/>
<polyline fill="none" stroke="black" points="2071,-24 2241,-24 "/>
<text text-anchor="middle" x="2156" y="-8.8" font-family="Times,serif" font-size="14.00" fill="red"> </text>
</g>
<!-- 2 -->
<g id="node3" class="node"><title>2</title>
<polygon fill="none" stroke="black" points="0,-1 0,-71 142,-71 142,-1 0,-1"/>
<text text-anchor="middle" x="71" y="-55.8" font-family="Times,serif" font-size="14.00" fill="red">InvalidBMPresetError</text>
<polyline fill="none" stroke="black" points="0,-48 142,-48 "/>
<polyline fill="none" stroke="black" points="0,-24 142,-24 "/>
<text text-anchor="middle" x="71" y="-8.8" font-family="Times,serif" font-size="14.00" fill="red"> </text>
</g>
<!-- 12 -->
<g id="node13" class="node"><title>12</title>
<polygon fill="none" stroke="black" points="277,-109 277,-179 381,-179 381,-109 277,-109"/>
<text text-anchor="middle" x="329" y="-163.8" font-family="Times,serif" font-size="14.00" fill="red">StereoBMError</text>
<polyline fill="none" stroke="black" points="277,-156 381,-156 "/>
<polyline fill="none" stroke="black" points="277,-132 381,-132 "/>
<text text-anchor="middle" x="329" y="-116.8" font-family="Times,serif" font-size="14.00" fill="red"> </text>
</g>
<!-- 2&#45;&gt;12 -->
<g id="edge2" class="edge"><title>2&#45;&gt;12</title>
<path fill="none" stroke="black" d="M142.048,-68.2279C145.069,-69.5101 148.063,-70.7721 151,-72 189.44,-88.0699 232.865,-105.407 267.2,-118.927"/>
<polygon fill="none" stroke="black" points="266.045,-122.233 276.632,-122.634 268.606,-115.718 266.045,-122.233"/>
</g>
<!-- 3 -->
<g id="node4" class="node"><title>3</title>
<polygon fill="none" stroke="black" points="515,-1 515,-71 763,-71 763,-1 515,-1"/>
<text text-anchor="middle" x="639" y="-55.8" font-family="Times,serif" font-size="14.00" fill="red">InvalidFirstDisparityChangePenaltyError</text>
<polyline fill="none" stroke="black" points="515,-48 763,-48 "/>
<polyline fill="none" stroke="black" points="515,-24 763,-24 "/>
<text text-anchor="middle" x="639" y="-8.8" font-family="Times,serif" font-size="14.00" fill="red"> </text>
</g>
<!-- 13 -->
<g id="node14" class="node"><title>13</title>
<polygon fill="none" stroke="black" points="1127,-109 1127,-179 1249,-179 1249,-109 1127,-109"/>
<text text-anchor="middle" x="1188" y="-163.8" font-family="Times,serif" font-size="14.00" fill="red">StereoSGBMError</text>
<polyline fill="none" stroke="black" points="1127,-156 1249,-156 "/>
<polyline fill="none" stroke="black" points="1127,-132 1249,-132 "/>
<text text-anchor="middle" x="1188" y="-116.8" font-family="Times,serif" font-size="14.00" fill="red"> </text>
</g>
<!-- 3&#45;&gt;13 -->
<g id="edge4" class="edge"><title>3&#45;&gt;13</title>
<path fill="none" stroke="black" d="M763.162,-70.0439C766.134,-70.7153 769.083,-71.3685 772,-72 892.125,-98.0038 1033.45,-120.415 1116.61,-132.776"/>
<polygon fill="none" stroke="black" points="1116.3,-136.269 1126.7,-134.27 1117.32,-129.344 1116.3,-136.269"/>
</g>
<!-- 4 -->
<g id="node5" class="node"><title>4</title>
<polygon fill="none" stroke="black" points="781.5,-1 781.5,-71 954.5,-71 954.5,-1 781.5,-1"/>
<text text-anchor="middle" x="868" y="-55.8" font-family="Times,serif" font-size="14.00" fill="red">InvalidNumDisparitiesError</text>
<polyline fill="none" stroke="black" points="781.5,-48 954.5,-48 "/>
<polyline fill="none" stroke="black" points="781.5,-24 954.5,-24 "/>
<text text-anchor="middle" x="868" y="-8.8" font-family="Times,serif" font-size="14.00" fill="red"> </text>
</g>
<!-- 4&#45;&gt;13 -->
<g id="edge6" class="edge"><title>4&#45;&gt;13</title>
<path fill="none" stroke="black" d="M954.661,-69.1198C957.47,-70.0996 960.256,-71.0621 963,-72 1014.17,-89.4883 1072.4,-107.821 1116.8,-121.476"/>
<polygon fill="none" stroke="black" points="1116.04,-124.904 1126.63,-124.492 1118.09,-118.212 1116.04,-124.904"/>
</g>
<!-- 5 -->
<g id="node6" class="node"><title>5</title>
<polygon fill="none" stroke="black" points="972.5,-1 972.5,-71 1159.5,-71 1159.5,-1 972.5,-1"/>
<text text-anchor="middle" x="1066" y="-55.8" font-family="Times,serif" font-size="14.00" fill="red">InvalidSADWindowSizeError</text>
<polyline fill="none" stroke="black" points="972.5,-48 1159.5,-48 "/>
<polyline fill="none" stroke="black" points="972.5,-24 1159.5,-24 "/>
<text text-anchor="middle" x="1066" y="-8.8" font-family="Times,serif" font-size="14.00" fill="red"> </text>
</g>
<!-- 5&#45;&gt;13 -->
<g id="edge8" class="edge"><title>5&#45;&gt;13</title>
<path fill="none" stroke="black" d="M1105.27,-71.1225C1116.7,-81.0519 1129.3,-91.9981 1141.15,-102.29"/>
<polygon fill="none" stroke="black" points="1138.96,-105.025 1148.8,-108.941 1143.55,-99.7406 1138.96,-105.025"/>
</g>
<!-- 6 -->
<g id="node7" class="node"><title>6</title>
<polygon fill="none" stroke="black" points="160,-1 160,-71 320,-71 320,-1 160,-1"/>
<text text-anchor="middle" x="240" y="-55.8" font-family="Times,serif" font-size="14.00" fill="red">InvalidSearchRangeError</text>
<polyline fill="none" stroke="black" points="160,-48 320,-48 "/>
<polyline fill="none" stroke="black" points="160,-24 320,-24 "/>
<text text-anchor="middle" x="240" y="-8.8" font-family="Times,serif" font-size="14.00" fill="red"> </text>
</g>
<!-- 6&#45;&gt;12 -->
<g id="edge10" class="edge"><title>6&#45;&gt;12</title>
<path fill="none" stroke="black" d="M268.65,-71.1225C276.669,-80.6736 285.479,-91.1656 293.829,-101.111"/>
<polygon fill="none" stroke="black" points="291.293,-103.533 300.404,-108.941 296.654,-99.0323 291.293,-103.533"/>
</g>
<!-- 7 -->
<g id="node8" class="node"><title>7</title>
<polygon fill="none" stroke="black" points="1178,-1 1178,-71 1444,-71 1444,-1 1178,-1"/>
<text text-anchor="middle" x="1311" y="-55.8" font-family="Times,serif" font-size="14.00" fill="red">InvalidSecondDisparityChangePenaltyError</text>
<polyline fill="none" stroke="black" points="1178,-48 1444,-48 "/>
<polyline fill="none" stroke="black" points="1178,-24 1444,-24 "/>
<text text-anchor="middle" x="1311" y="-8.8" font-family="Times,serif" font-size="14.00" fill="red"> </text>
</g>
<!-- 7&#45;&gt;13 -->
<g id="edge12" class="edge"><title>7&#45;&gt;13</title>
<path fill="none" stroke="black" d="M1271.4,-71.1225C1259.88,-81.0519 1247.18,-91.9981 1235.24,-102.29"/>
<polygon fill="none" stroke="black" points="1232.81,-99.7619 1227.52,-108.941 1237.38,-105.064 1232.81,-99.7619"/>
</g>
<!-- 8 -->
<g id="node9" class="node"><title>8</title>
<polygon fill="none" stroke="black" points="1462.5,-1 1462.5,-71 1629.5,-71 1629.5,-1 1462.5,-1"/>
<text text-anchor="middle" x="1546" y="-55.8" font-family="Times,serif" font-size="14.00" fill="red">InvalidSpeckleRangeError</text>
<polyline fill="none" stroke="black" points="1462.5,-48 1629.5,-48 "/>
<polyline fill="none" stroke="black" points="1462.5,-24 1629.5,-24 "/>
<text text-anchor="middle" x="1546" y="-8.8" font-family="Times,serif" font-size="14.00" fill="red"> </text>
</g>
<!-- 8&#45;&gt;13 -->
<g id="edge14" class="edge"><title>8&#45;&gt;13</title>
<path fill="none" stroke="black" d="M1462.48,-68.8723C1459.29,-69.9508 1456.12,-70.9974 1453,-72 1387.9,-92.9158 1312.47,-112.702 1258.78,-126.047"/>
<polygon fill="none" stroke="black" points="1257.88,-122.664 1249.01,-128.463 1259.56,-129.459 1257.88,-122.664"/>
</g>
<!-- 9 -->
<g id="node10" class="node"><title>9</title>
<polygon fill="none" stroke="black" points="1647.5,-1 1647.5,-71 1852.5,-71 1852.5,-1 1647.5,-1"/>
<text text-anchor="middle" x="1750" y="-55.8" font-family="Times,serif" font-size="14.00" fill="red">InvalidSpeckleWindowSizeError</text>
<polyline fill="none" stroke="black" points="1647.5,-48 1852.5,-48 "/>
<polyline fill="none" stroke="black" points="1647.5,-24 1852.5,-24 "/>
<text text-anchor="middle" x="1750" y="-8.8" font-family="Times,serif" font-size="14.00" fill="red"> </text>
</g>
<!-- 9&#45;&gt;13 -->
<g id="edge16" class="edge"><title>9&#45;&gt;13</title>
<path fill="none" stroke="black" d="M1647.32,-69.7272C1644.19,-70.5209 1641.07,-71.2811 1638,-72 1505.82,-102.906 1348.6,-124.285 1259.34,-135.019"/>
<polygon fill="none" stroke="black" points="1258.84,-131.554 1249.32,-136.213 1259.67,-138.504 1258.84,-131.554"/>
</g>
<!-- 10 -->
<g id="node11" class="node"><title>10</title>
<polygon fill="none" stroke="black" points="1871,-1 1871,-71 2053,-71 2053,-1 1871,-1"/>
<text text-anchor="middle" x="1962" y="-55.8" font-family="Times,serif" font-size="14.00" fill="red">InvalidUniquenessRatioError</text>
<polyline fill="none" stroke="black" points="1871,-48 2053,-48 "/>
<polyline fill="none" stroke="black" points="1871,-24 2053,-24 "/>
<text text-anchor="middle" x="1962" y="-8.8" font-family="Times,serif" font-size="14.00" fill="red"> </text>
</g>
<!-- 10&#45;&gt;13 -->
<g id="edge18" class="edge"><title>10&#45;&gt;13</title>
<path fill="none" stroke="black" d="M1870.88,-69.6206C1867.56,-70.4755 1864.26,-71.2732 1861,-72 1645.17,-120.115 1382.93,-135.858 1259.18,-140.822"/>
<polygon fill="none" stroke="black" points="1258.93,-137.329 1249.08,-141.216 1259.21,-144.324 1258.93,-137.329"/>
</g>
<!-- 11 -->
<g id="node12" class="node"><title>11</title>
<polygon fill="none" stroke="black" points="338.5,-1 338.5,-71 497.5,-71 497.5,-1 338.5,-1"/>
<text text-anchor="middle" x="418" y="-55.8" font-family="Times,serif" font-size="14.00" fill="red">InvalidWindowSizeError</text>
<polyline fill="none" stroke="black" points="338.5,-48 497.5,-48 "/>
<polyline fill="none" stroke="black" points="338.5,-24 497.5,-24 "/>
<text text-anchor="middle" x="418" y="-8.8" font-family="Times,serif" font-size="14.00" fill="red"> </text>
</g>
<!-- 11&#45;&gt;12 -->
<g id="edge20" class="edge"><title>11&#45;&gt;12</title>
<path fill="none" stroke="black" d="M389.35,-71.1225C381.331,-80.6736 372.521,-91.1656 364.171,-101.111"/>
<polygon fill="none" stroke="black" points="361.346,-99.0323 357.596,-108.941 366.707,-103.533 361.346,-99.0323"/>
</g>
<!-- 12&#45;&gt;0 -->
<g id="edge22" class="edge"><title>12&#45;&gt;0</title>
<path fill="none" stroke="black" d="M381.307,-158.425C443.046,-174.271 547.507,-201.082 628.168,-221.784"/>
<polygon fill="none" stroke="black" points="627.326,-225.181 637.883,-224.277 629.067,-218.401 627.326,-225.181"/>
</g>
<!-- 13&#45;&gt;0 -->
<g id="edge24" class="edge"><title>13&#45;&gt;0</title>
<path fill="none" stroke="black" d="M1126.92,-159.517C1057.43,-176.032 942.43,-203.364 856.189,-223.861"/>
<polygon fill="none" stroke="black" points="855.27,-220.482 846.35,-226.199 856.889,-227.292 855.27,-220.482"/>
</g>
</g>
</svg>
