<?xml version="1.0" encoding="UTF-8" standalone="no"?>
<!DOCTYPE svg PUBLIC "-//W3C//DTD SVG 1.1//EN"
 "http://www.w3.org/Graphics/SVG/1.1/DTD/svg11.dtd">
<!-- Generated by graphviz version 2.28.0 (20130928.0220)
 -->
<!-- Title: classes_calibration Pages: 1 -->
<svg width="349pt" height="274pt"
 viewBox="0.00 0.00 349.00 274.00" xmlns="http://www.w3.org/2000/svg" xmlns:xlink="http://www.w3.org/1999/xlink">
<g id="graph1" class="graph" transform="scale(1 1) rotate(0) translate(4 270)">
<title>classes_calibration</title>
<polygon fill="white" stroke="white" points="-4,5 -4,-270 346,-270 346,5 -4,5"/>
<!-- 0 -->
<g id="node1" class="node"><title>0</title>
<polygon fill="none" stroke="black" points="-1,-1 -1,-265 195,-265 195,-1 -1,-1"/>
<text text-anchor="middle" x="97" y="-249.8" font-family="Times,serif" font-size="14.00">StereoCalibration</text>
<polyline fill="none" stroke="black" points="-1,-242 195,-242 "/>
<text text-anchor="start" x="7" y="-226.8" font-family="Times,serif" font-size="14.00">cam_mats : dict</text>
<text text-anchor="start" x="7" y="-211.8" font-family="Times,serif" font-size="14.00">disp_to_depth_mat : NoneType</text>
<text text-anchor="start" x="7" y="-196.8" font-family="Times,serif" font-size="14.00">dist_coefs : dict</text>
<text text-anchor="start" x="7" y="-181.8" font-family="Times,serif" font-size="14.00">e_mat : NoneType</text>
<text text-anchor="start" x="7" y="-166.8" font-family="Times,serif" font-size="14.00">f_mat : NoneType</text>
<text text-anchor="start" x="7" y="-151.8" font-family="Times,serif" font-size="14.00">proj_mats : dict</text>
<text text-anchor="start" x="7" y="-136.8" font-family="Times,serif" font-size="14.00">rect_trans : dict</text>
<text text-anchor="start" x="7" y="-121.8" font-family="Times,serif" font-size="14.00">rectification_map : dict</text>
<text text-anchor="start" x="7" y="-106.8" font-family="Times,serif" font-size="14.00">rot_mat : NoneType</text>
<text text-anchor="start" x="7" y="-91.8" font-family="Times,serif" font-size="14.00">trans_vec : NoneType</text>
<text text-anchor="start" x="7" y="-76.8" font-family="Times,serif" font-size="14.00">undistortion_map : dict</text>
<text text-anchor="start" x="7" y="-61.8" font-family="Times,serif" font-size="14.00">valid_boxes : dict</text>
<polyline fill="none" stroke="black" points="-1,-54 195,-54 "/>
<text text-anchor="start" x="7" y="-38.8" font-family="Times,serif" font-size="14.00">export()</text>
<text text-anchor="start" x="7" y="-23.8" font-family="Times,serif" font-size="14.00">load()</text>
<text text-anchor="start" x="7" y="-8.8" font-family="Times,serif" font-size="14.00">rectify()</text>
</g>
<!-- 1 -->
<g id="node2" class="node"><title>1</title>
<polygon fill="none" stroke="black" points="213,-31 213,-235 341,-235 341,-31 213,-31"/>
<text text-anchor="middle" x="277" y="-219.8" font-family="Times,serif" font-size="14.00">StereoCalibrator</text>
<polyline fill="none" stroke="black" points="213,-212 341,-212 "/>
<text text-anchor="start" x="221" y="-196.8" font-family="Times,serif" font-size="14.00">columns</text>
<text text-anchor="start" x="221" y="-181.8" font-family="Times,serif" font-size="14.00">corner_coordinates</text>
<text text-anchor="start" x="221" y="-166.8" font-family="Times,serif" font-size="14.00">image_count : int</text>
<text text-anchor="start" x="221" y="-151.8" font-family="Times,serif" font-size="14.00">image_points : dict</text>
<text text-anchor="start" x="221" y="-136.8" font-family="Times,serif" font-size="14.00">image_size</text>
<text text-anchor="start" x="221" y="-121.8" font-family="Times,serif" font-size="14.00">object_points : list</text>
<text text-anchor="start" x="221" y="-106.8" font-family="Times,serif" font-size="14.00">rows</text>
<text text-anchor="start" x="221" y="-91.8" font-family="Times,serif" font-size="14.00">square_size</text>
<polyline fill="none" stroke="black" points="213,-84 341,-84 "/>
<text text-anchor="start" x="221" y="-68.8" font-family="Times,serif" font-size="14.00">add_corners()</text>
<text text-anchor="start" x="221" y="-53.8" font-family="Times,serif" font-size="14.00">calibrate_cameras()</text>
<text text-anchor="start" x="221" y="-38.8" font-family="Times,serif" font-size="14.00">check_calibration()</text>
</g>
</g>
</svg>
