<?xml version="1.0" encoding="UTF-8" standalone="no"?>
<!DOCTYPE svg PUBLIC "-//W3C//DTD SVG 1.1//EN"
 "http://www.w3.org/Graphics/SVG/1.1/DTD/svg11.dtd">
<!-- Generated by graphviz version 2.28.0 (20130928.0220)
 -->
<!-- Title: classes_stereo_cameras Pages: 1 -->
<svg width="265pt" height="274pt"
 viewBox="0.00 0.00 265.00 274.00" xmlns="http://www.w3.org/2000/svg" xmlns:xlink="http://www.w3.org/1999/xlink">
<g id="graph1" class="graph" transform="scale(1 1) rotate(0) translate(4 270)">
<title>classes_stereo_cameras</title>
<polygon fill="white" stroke="white" points="-4,5 -4,-270 262,-270 262,5 -4,5"/>
<!-- 0 -->
<g id="node1" class="node"><title>0</title>
<polygon fill="none" stroke="black" points="-0.5,-0.5 -0.5,-99.5 118.5,-99.5 118.5,-0.5 -0.5,-0.5"/>
<text text-anchor="middle" x="59" y="-84.3" font-family="Times,serif" font-size="14.00">CalibratedPair</text>
<polyline fill="none" stroke="black" points="-0.5,-76.5 118.5,-76.5 "/>
<text text-anchor="start" x="7.5" y="-61.3" font-family="Times,serif" font-size="14.00">block_matcher</text>
<text text-anchor="start" x="7.5" y="-46.3" font-family="Times,serif" font-size="14.00">calibration</text>
<polyline fill="none" stroke="black" points="-0.5,-38.5 118.5,-38.5 "/>
<text text-anchor="start" x="7.5" y="-23.3" font-family="Times,serif" font-size="14.00">get_frames()</text>
<text text-anchor="start" x="7.5" y="-8.3" font-family="Times,serif" font-size="14.00">get_point_cloud()</text>
</g>
<!-- 2 -->
<g id="node3" class="node"><title>2</title>
<polygon fill="none" stroke="black" points="77.5,-136.5 77.5,-265.5 178.5,-265.5 178.5,-136.5 77.5,-136.5"/>
<text text-anchor="middle" x="128" y="-250.3" font-family="Times,serif" font-size="14.00">StereoPair</text>
<polyline fill="none" stroke="black" points="77.5,-242.5 178.5,-242.5 "/>
<text text-anchor="start" x="85.5" y="-227.3" font-family="Times,serif" font-size="14.00">captures</text>
<text text-anchor="start" x="85.5" y="-212.3" font-family="Times,serif" font-size="14.00">side : str</text>
<text text-anchor="start" x="85.5" y="-197.3" font-family="Times,serif" font-size="14.00">windows</text>
<polyline fill="none" stroke="black" points="77.5,-189.5 178.5,-189.5 "/>
<text text-anchor="start" x="85.5" y="-174.3" font-family="Times,serif" font-size="14.00">get_frames()</text>
<text text-anchor="start" x="85.5" y="-159.3" font-family="Times,serif" font-size="14.00">show_frames()</text>
<text text-anchor="start" x="85.5" y="-144.3" font-family="Times,serif" font-size="14.00">show_videos()</text>
</g>
<!-- 0&#45;&gt;2 -->
<g id="edge2" class="edge"><title>0&#45;&gt;2</title>
<path fill="none" stroke="black" d="M81.5932,-99.7882C85.6611,-108.572 89.9807,-117.9 94.2841,-127.193"/>
<polygon fill="none" stroke="black" points="91.1938,-128.849 98.5721,-136.453 97.5458,-125.908 91.1938,-128.849"/>
</g>
<!-- 1 -->
<g id="node2" class="node"><title>1</title>
<polygon fill="none" stroke="black" points="137,-15 137,-85 257,-85 257,-15 137,-15"/>
<text text-anchor="middle" x="197" y="-69.8" font-family="Times,serif" font-size="14.00">ChessboardFinder</text>
<polyline fill="none" stroke="black" points="137,-62 257,-62 "/>
<polyline fill="none" stroke="black" points="137,-38 257,-38 "/>
<text text-anchor="start" x="145" y="-22.8" font-family="Times,serif" font-size="14.00">get_chessboard()</text>
</g>
<!-- 1&#45;&gt;2 -->
<g id="edge4" class="edge"><title>1&#45;&gt;2</title>
<path fill="none" stroke="black" d="M181.17,-85.1836C175.338,-97.7773 168.488,-112.57 161.68,-127.272"/>
<polygon fill="none" stroke="black" points="158.482,-125.848 157.456,-136.393 164.834,-128.789 158.482,-125.848"/>
</g>
</g>
</svg>
