<?xml version="1.0" encoding="UTF-8" standalone="no"?>
<!DOCTYPE svg PUBLIC "-//W3C//DTD SVG 1.1//EN"
 "http://www.w3.org/Graphics/SVG/1.1/DTD/svg11.dtd">
<!-- Generated by graphviz version 2.28.0 (20130928.0220)
 -->
<!-- Title: classes_blockmatchers Pages: 1 -->
<svg width="342pt" height="380pt"
 viewBox="0.00 0.00 342.00 380.00" xmlns="http://www.w3.org/2000/svg" xmlns:xlink="http://www.w3.org/1999/xlink">
<g id="graph1" class="graph" transform="scale(1 1) rotate(0) translate(4 376)">
<title>classes_blockmatchers</title>
<polygon fill="white" stroke="white" points="-4,5 -4,-376 339,-376 339,5 -4,5"/>
<!-- 0 -->
<g id="node1" class="node"><title>0</title>
<polygon fill="none" stroke="black" points="88,-257 88,-371 246,-371 246,-257 88,-257"/>
<text text-anchor="middle" x="167" y="-355.8" font-family="Times,serif" font-size="14.00">BlockMatcher</text>
<polyline fill="none" stroke="black" points="88,-348 246,-348 "/>
<text text-anchor="start" x="96" y="-332.8" font-family="Times,serif" font-size="14.00">parameter_maxima : dict</text>
<polyline fill="none" stroke="black" points="88,-325 246,-325 "/>
<text text-anchor="start" x="96" y="-309.8" font-family="Times,serif" font-size="14.00">get_3d()</text>
<text text-anchor="start" x="96" y="-294.8" font-family="Times,serif" font-size="14.00">get_disparity()</text>
<text text-anchor="start" x="96" y="-279.8" font-family="Times,serif" font-size="14.00">load_settings()</text>
<text text-anchor="start" x="96" y="-264.8" font-family="Times,serif" font-size="14.00">save_settings()</text>
</g>
<!-- 1 -->
<g id="node2" class="node"><title>1</title>
<polygon fill="none" stroke="black" points="0,-30.5 0,-189.5 158,-189.5 158,-30.5 0,-30.5"/>
<text text-anchor="middle" x="79" y="-174.3" font-family="Times,serif" font-size="14.00">StereoBM</text>
<polyline fill="none" stroke="black" points="0,-166.5 158,-166.5 "/>
<text text-anchor="start" x="8" y="-151.3" font-family="Times,serif" font-size="14.00">parameter_maxima : dict</text>
<text text-anchor="start" x="8" y="-136.3" font-family="Times,serif" font-size="14.00">search_range : int</text>
<text text-anchor="start" x="8" y="-121.3" font-family="Times,serif" font-size="14.00">stereo_bm_preset : long</text>
<text text-anchor="start" x="8" y="-106.3" font-family="Times,serif" font-size="14.00">window_size : int</text>
<polyline fill="none" stroke="black" points="0,-98.5 158,-98.5 "/>
<text text-anchor="start" x="8" y="-83.3" font-family="Times,serif" font-size="14.00">get_disparity()</text>
<text text-anchor="start" x="8" y="-68.3" font-family="Times,serif" font-size="14.00">search_range()</text>
<text text-anchor="start" x="8" y="-53.3" font-family="Times,serif" font-size="14.00">stereo_bm_preset()</text>
<text text-anchor="start" x="8" y="-38.3" font-family="Times,serif" font-size="14.00">window_size()</text>
</g>
<!-- 1&#45;&gt;0 -->
<g id="edge2" class="edge"><title>1&#45;&gt;0</title>
<path fill="none" stroke="black" d="M113.275,-189.677C121.615,-208.82 130.445,-229.089 138.484,-247.543"/>
<polygon fill="none" stroke="black" points="135.283,-248.958 142.485,-256.728 141.7,-246.162 135.283,-248.958"/>
</g>
<!-- 2 -->
<g id="node3" class="node"><title>2</title>
<polygon fill="none" stroke="black" points="176,-0.5 176,-219.5 334,-219.5 334,-0.5 176,-0.5"/>
<text text-anchor="middle" x="255" y="-204.3" font-family="Times,serif" font-size="14.00">StereoSGBM</text>
<polyline fill="none" stroke="black" points="176,-196.5 334,-196.5 "/>
<text text-anchor="start" x="184" y="-181.3" font-family="Times,serif" font-size="14.00">parameter_maxima : dict</text>
<polyline fill="none" stroke="black" points="176,-173.5 334,-173.5 "/>
<text text-anchor="start" x="184" y="-158.3" font-family="Times,serif" font-size="14.00">P1()</text>
<text text-anchor="start" x="184" y="-143.3" font-family="Times,serif" font-size="14.00">P2()</text>
<text text-anchor="start" x="184" y="-128.3" font-family="Times,serif" font-size="14.00">SADWindowSize()</text>
<text text-anchor="start" x="184" y="-113.3" font-family="Times,serif" font-size="14.00">disp12MaxDiff()</text>
<text text-anchor="start" x="184" y="-98.3" font-family="Times,serif" font-size="14.00">fullDP()</text>
<text text-anchor="start" x="184" y="-83.3" font-family="Times,serif" font-size="14.00">get_disparity()</text>
<text text-anchor="start" x="184" y="-68.3" font-family="Times,serif" font-size="14.00">minDisparity()</text>
<text text-anchor="start" x="184" y="-53.3" font-family="Times,serif" font-size="14.00">numDisparities()</text>
<text text-anchor="start" x="184" y="-38.3" font-family="Times,serif" font-size="14.00">speckleRange()</text>
<text text-anchor="start" x="184" y="-23.3" font-family="Times,serif" font-size="14.00">speckleWindowSize()</text>
<text text-anchor="start" x="184" y="-8.3" font-family="Times,serif" font-size="14.00">uniquenessRatio()</text>
</g>
<!-- 2&#45;&gt;0 -->
<g id="edge4" class="edge"><title>2&#45;&gt;0</title>
<path fill="none" stroke="black" d="M207.651,-219.687C203.485,-229.251 199.358,-238.723 195.423,-247.757"/>
<polygon fill="none" stroke="black" points="192.182,-246.432 191.397,-256.998 198.6,-249.228 192.182,-246.432"/>
</g>
</g>
</svg>
