<?xml version="1.0" encoding="UTF-8" standalone="no"?>
<!DOCTYPE svg PUBLIC "-//W3C//DTD SVG 1.1//EN"
 "http://www.w3.org/Graphics/SVG/1.1/DTD/svg11.dtd">
<!-- Generated by graphviz version 2.28.0 (20130928.0220)
 -->
<!-- Title: packages_StereoVision Pages: 1 -->
<svg width="598pt" height="188pt"
 viewBox="0.00 0.00 598.00 188.00" xmlns="http://www.w3.org/2000/svg" xmlns:xlink="http://www.w3.org/1999/xlink">
<g id="graph1" class="graph" transform="scale(1 1) rotate(0) translate(4 184)">
<title>packages_StereoVision</title>
<polygon fill="white" stroke="white" points="-4,5 -4,-184 595,-184 595,5 -4,5"/>
<!-- 0 -->
<g id="node1" class="node"><title>0</title>
<polygon fill="none" stroke="black" points="249.5,-36 164.5,-36 164.5,-0 249.5,-0 249.5,-36"/>
<text text-anchor="middle" x="207" y="-14.3" font-family="Times,serif" font-size="14.00">stereovision</text>
</g>
<!-- 1 -->
<g id="node2" class="node"><title>1</title>
<polygon fill="none" stroke="black" points="170.5,-108 -0.5,-108 -0.5,-72 170.5,-72 170.5,-108"/>
<text text-anchor="middle" x="85" y="-86.3" font-family="Times,serif" font-size="14.00">stereovision.blockmatchers</text>
</g>
<!-- 3 -->
<g id="node4" class="node"><title>3</title>
<polygon fill="none" stroke="black" points="336.5,-180 187.5,-180 187.5,-144 336.5,-144 336.5,-180"/>
<text text-anchor="middle" x="262" y="-158.3" font-family="Times,serif" font-size="14.00">stereovision.exceptions</text>
</g>
<!-- 1&#45;&gt;3 -->
<g id="edge2" class="edge"><title>1&#45;&gt;3</title>
<path fill="none" stroke="black" d="M128.299,-108.124C152.711,-117.778 183.396,-129.913 209.21,-140.122"/>
<polygon fill="black" stroke="black" points="218.842,-143.932 207.887,-144.439 214.192,-142.093 209.542,-140.254 209.542,-140.254 209.542,-140.254 214.192,-142.093 211.197,-136.069 218.842,-143.932 218.842,-143.932"/>
</g>
<!-- 2 -->
<g id="node3" class="node"><title>2</title>
<polygon fill="none" stroke="black" points="335.5,-108 188.5,-108 188.5,-72 335.5,-72 335.5,-108"/>
<text text-anchor="middle" x="262" y="-86.3" font-family="Times,serif" font-size="14.00">stereovision.calibration</text>
</g>
<!-- 2&#45;&gt;3 -->
<g id="edge4" class="edge"><title>2&#45;&gt;3</title>
<path fill="none" stroke="black" d="M262,-108.303C262,-116.017 262,-125.288 262,-133.888"/>
<polygon fill="black" stroke="black" points="262,-143.896 257.5,-133.896 262,-138.896 262,-133.896 262,-133.896 262,-133.896 262,-138.896 266.5,-133.896 262,-143.896 262,-143.896"/>
</g>
<!-- 4 -->
<g id="node5" class="node"><title>4</title>
<polygon fill="none" stroke="black" points="579.5,-108 424.5,-108 424.5,-72 579.5,-72 579.5,-108"/>
<text text-anchor="middle" x="502" y="-86.3" font-family="Times,serif" font-size="14.00">stereovision.point_cloud</text>
</g>
<!-- 5 -->
<g id="node6" class="node"><title>5</title>
<polygon fill="none" stroke="black" points="590,-36 414,-36 414,-0 590,-0 590,-36"/>
<text text-anchor="middle" x="502" y="-14.3" font-family="Times,serif" font-size="14.00">stereovision.stereo_cameras</text>
</g>
<!-- 5&#45;&gt;4 -->
<g id="edge6" class="edge"><title>5&#45;&gt;4</title>
<path fill="none" stroke="black" d="M502,-36.3034C502,-44.0173 502,-53.2875 502,-61.8876"/>
<polygon fill="black" stroke="black" points="502,-71.8957 497.5,-61.8956 502,-66.8957 502,-61.8957 502,-61.8957 502,-61.8957 502,-66.8957 506.5,-61.8957 502,-71.8957 502,-71.8957"/>
</g>
<!-- 6 -->
<g id="node7" class="node"><title>6</title>
<polygon fill="none" stroke="black" points="396,-36 268,-36 268,-0 396,-0 396,-36"/>
<text text-anchor="middle" x="332" y="-14.3" font-family="Times,serif" font-size="14.00">stereovision.ui_utils</text>
</g>
<!-- 6&#45;&gt;2 -->
<g id="edge8" class="edge"><title>6&#45;&gt;2</title>
<path fill="none" stroke="black" d="M314.697,-36.3034C306.135,-44.865 295.656,-55.3438 286.304,-64.6955"/>
<polygon fill="black" stroke="black" points="279.104,-71.8957 282.993,-61.6426 282.64,-68.3601 286.175,-64.8246 286.175,-64.8246 286.175,-64.8246 282.64,-68.3601 289.357,-68.0066 279.104,-71.8957 279.104,-71.8957"/>
</g>
<!-- 6&#45;&gt;3 -->
<g id="edge10" class="edge"><title>6&#45;&gt;3</title>
<path fill="none" stroke="black" d="M340.133,-36.1774C347.759,-54.9641 356.3,-85.4053 344,-108 337.087,-120.699 325.678,-130.819 313.535,-138.67"/>
<polygon fill="black" stroke="black" points="304.618,-143.989 310.901,-135.002 308.912,-141.428 313.206,-138.866 313.206,-138.866 313.206,-138.866 308.912,-141.428 315.512,-142.731 304.618,-143.989 304.618,-143.989"/>
</g>
</g>
</svg>
