<?xml version="1.0" encoding="UTF-8" standalone="no"?>
<!DOCTYPE svg PUBLIC "-//W3C//DTD SVG 1.1//EN"
 "http://www.w3.org/Graphics/SVG/1.1/DTD/svg11.dtd">
<!-- Generated by graphviz version 2.38.0 (20140413.2041)
 -->
<!-- Title: packages_StereoVision Pages: 1 -->
<svg width="599pt" height="188pt"
 viewBox="0.00 0.00 598.50 188.00" xmlns="http://www.w3.org/2000/svg" xmlns:xlink="http://www.w3.org/1999/xlink">
<g id="graph0" class="graph" transform="scale(1 1) rotate(0) translate(4 184)">
<title>packages_StereoVision</title>
<polygon fill="white" stroke="none" points="-4,4 -4,-184 594.5,-184 594.5,4 -4,4"/>
<!-- 0 -->
<g id="node1" class="node"><title>0</title>
<polygon fill="none" stroke="black" points="250,-36 165,-36 165,-0 250,-0 250,-36"/>
<text text-anchor="middle" x="207.5" y="-14.3" font-family="Times,serif" font-size="14.00">stereovision</text>
</g>
<!-- 1 -->
<g id="node2" class="node"><title>1</title>
<polygon fill="none" stroke="black" points="171,-108 0,-108 0,-72 171,-72 171,-108"/>
<text text-anchor="middle" x="85.5" y="-86.3" font-family="Times,serif" font-size="14.00">stereovision.blockmatchers</text>
</g>
<!-- 3 -->
<g id="node4" class="node"><title>3</title>
<polygon fill="none" stroke="black" points="337,-180 188,-180 188,-144 337,-144 337,-180"/>
<text text-anchor="middle" x="262.5" y="-158.3" font-family="Times,serif" font-size="14.00">stereovision.exceptions</text>
</g>
<!-- 1&#45;&gt;3 -->
<g id="edge1" class="edge"><title>1&#45;&gt;3</title>
<path fill="none" stroke="black" d="M128.799,-108.124C153.211,-117.778 183.896,-129.913 209.71,-140.122"/>
<polygon fill="black" stroke="black" points="219.342,-143.932 208.387,-144.439 214.692,-142.093 210.042,-140.254 210.042,-140.254 210.042,-140.254 214.692,-142.093 211.697,-136.069 219.342,-143.932 219.342,-143.932"/>
</g>
<!-- 2 -->
<g id="node3" class="node"><title>2</title>
<polygon fill="none" stroke="black" points="336,-108 189,-108 189,-72 336,-72 336,-108"/>
<text text-anchor="middle" x="262.5" y="-86.3" font-family="Times,serif" font-size="14.00">stereovision.calibration</text>
</g>
<!-- 2&#45;&gt;3 -->
<g id="edge2" class="edge"><title>2&#45;&gt;3</title>
<path fill="none" stroke="black" d="M262.5,-108.303C262.5,-116.017 262.5,-125.288 262.5,-133.888"/>
<polygon fill="black" stroke="black" points="262.5,-143.896 258,-133.896 262.5,-138.896 262.5,-133.896 262.5,-133.896 262.5,-133.896 262.5,-138.896 267,-133.896 262.5,-143.896 262.5,-143.896"/>
</g>
<!-- 4 -->
<g id="node5" class="node"><title>4</title>
<polygon fill="none" stroke="black" points="580,-108 425,-108 425,-72 580,-72 580,-108"/>
<text text-anchor="middle" x="502.5" y="-86.3" font-family="Times,serif" font-size="14.00">stereovision.point_cloud</text>
</g>
<!-- 5 -->
<g id="node6" class="node"><title>5</title>
<polygon fill="none" stroke="black" points="590.5,-36 414.5,-36 414.5,-0 590.5,-0 590.5,-36"/>
<text text-anchor="middle" x="502.5" y="-14.3" font-family="Times,serif" font-size="14.00">stereovision.stereo_cameras</text>
</g>
<!-- 5&#45;&gt;4 -->
<g id="edge3" class="edge"><title>5&#45;&gt;4</title>
<path fill="none" stroke="black" d="M502.5,-36.3034C502.5,-44.0173 502.5,-53.2875 502.5,-61.8876"/>
<polygon fill="black" stroke="black" points="502.5,-71.8957 498,-61.8956 502.5,-66.8957 502.5,-61.8957 502.5,-61.8957 502.5,-61.8957 502.5,-66.8957 507,-61.8957 502.5,-71.8957 502.5,-71.8957"/>
</g>
<!-- 6 -->
<g id="node7" class="node"><title>6</title>
<polygon fill="none" stroke="black" points="396.5,-36 268.5,-36 268.5,-0 396.5,-0 396.5,-36"/>
<text text-anchor="middle" x="332.5" y="-14.3" font-family="Times,serif" font-size="14.00">stereovision.ui_utils</text>
</g>
<!-- 6&#45;&gt;2 -->
<g id="edge4" class="edge"><title>6&#45;&gt;2</title>
<path fill="none" stroke="black" d="M315.197,-36.3034C306.635,-44.865 296.156,-55.3438 286.804,-64.6955"/>
<polygon fill="black" stroke="black" points="279.604,-71.8957 283.493,-61.6426 283.14,-68.3601 286.675,-64.8246 286.675,-64.8246 286.675,-64.8246 283.14,-68.3601 289.857,-68.0066 279.604,-71.8957 279.604,-71.8957"/>
</g>
<!-- 6&#45;&gt;3 -->
<g id="edge5" class="edge"><title>6&#45;&gt;3</title>
<path fill="none" stroke="black" d="M340.953,-36.177C348.902,-54.9635 357.881,-85.4043 345.5,-108 338.559,-120.668 327.158,-130.748 314.997,-138.567"/>
<polygon fill="black" stroke="black" points="306.061,-143.866 312.368,-134.895 310.362,-141.316 314.663,-138.766 314.663,-138.766 314.663,-138.766 310.362,-141.316 316.958,-142.636 306.061,-143.866 306.061,-143.866"/>
</g>
</g>
</svg>
